<svg version="1.1" xmlns="http://www.w3.org/2000/svg" viewBox="0 0 100 100">
  <style>
    .logo-shape {
      fill: #2c7a7b; /* Eine Annäherung an die Farbe im Bild */
    }
  </style>
  <path class="logo-shape" d="M50,0 C22.4,0,0,22.4,0,50s22.4,50,50,50s50-22.4,50-50S77.6,0,50,0z M78.6,47.3c-2.9-2.3-10.3-6.1-15.6-7.3  c-2.4-0.6-5.8-1.5-7.7-3.1c-3.1-2.6-2.9-7-2.9-7.5c-0.1-2.9-2.1-5.1-4.7-5.9c-0.9-0.3-1.9-0.4-2.8-0.4c-4.4,0-8,3.6-8,8  c0,2.6,1.2,4.9,3.1,6.4c3.4,2.7,11.3,4.9,18,6.8c5.4,1.5,12,3.3,12.2,8c0.3,4.8-3.4,8-8.2,8c-3.3,0-6.1-1.9-7.4-4.7  c-0.9-1.8-1.1-3.9-0.7-5.9c0.4-2.2,2.4-3.8,4.7-3.8c0.7,0,1.3,0.1,1.9,0.4c-1-4.6-5.1-8-9.9-8c-5.7,0-10.4,4.7-10.4,10.4  c0,5.4,4.2,9.9,9.5,10.4c7.6,0.6,14.6-4.1,16.8-10.9C81.8,55.1,81.5,50,78.6,47.3z"/>
</svg>